# xmcd
#
# Track frame offsets: 
#        150
#        11704
#        26848
#        43360
#        54837
#        64767
#        80216
#        92732
#        112665
#        130784
#        164644
#        191572
#
# Disc length: 2756 seconds
#
# Revision: 1
# Processed by: cddbd v1.5.2PL0 Copyright (c) Steve Scherf et al.
# Submitted via: ExactAudioCopy v0.99pb4
#
DISCID=a10ac20c
DTITLE=Otis Spann - I Wanna Go Home
DYEAR=2003
DGENRE=Blues
TTITLE0=Get Your Hands Out Of My Pocket
TTITLE1=Nobody Knows My Troubles
TTITLE2=You Can't Miss What You Ain't Never Had
TTITLE3=Who's Out There?
TTITLE4=Spann's Boogie Woogie
TTITLE5=Lovin' You
TTITLE6=One Room Country Shack
TTITLE7=Been A Long, Long Time
TTITLE8=Worried Life Blues
TTITLE9=Tin Pan Alley
TTITLE10=I Wanna Go Home
TTITLE11=Live The Life I Love
EXTD=
EXTT0=
EXTT1=
EXTT2=
EXTT3=
EXTT4=
EXTT5=
EXTT6=
EXTT7=
EXTT8=
EXTT9=
EXTT10=
EXTT11=
PLAYORDER=
